<svg width="180" height="36" viewBox="0 0 140 24" fill="none" xmlns="http://www.w3.org/2000/svg">
  <!-- BioLM SVG path -->
  <path d="M12.41884 15.8681H13.45084C14.63484 15.8681 15.48284 15.7161 15.99484 15.4121C16.50684 15.1081 16.76284 14.6201 16.76284 13.9481C16.76284 13.2761 16.50684 12.7881 15.99484 12.4841C15.48284 12.1801 14.63484 12.0281 13.45084 12.0281H12.41884V15.8681ZM12.41884 8.52408H13.28284C14.75484 8.52408 15.49084 7.94008 15.49084 6.77208C15.49084 5.60408 14.75484 5.02008 13.28284 5.02008H12.41884V8.52408ZM7.714844 1.42008H14.72284C16.38684 1.42008 17.6508 1.82008 18.5148 2.62008C19.3788 3.42008 19.8108 4.57208 19.8108 6.07608C19.8108 6.98808 19.6428 7.74808 19.3068 8.35608C18.9868 8.94808 18.4908 9.45208 17.8188 9.86808C18.4908 9.99608 19.0588 10.1961 19.5228 10.4681C20.0028 10.7241 20.3868 11.0441 20.6748 11.4281C20.9788 11.8121 21.1948 12.2441 21.3228 12.7241C21.4508 13.2041 21.5148 13.7161 21.5148 14.2601C21.5148 15.1081 21.3628 15.8601 21.0588 16.5161C20.7708 17.1721 20.3548 17.7241 19.8108 18.1721C19.2828 18.6201 18.6348 18.9561 17.8668 19.1801C17.0988 19.4041 16.23484 19.5161 15.27484 19.5161H7.714844V1.42008Z" fill="#171717"/>
  <path d="M27.068 7.20408V19.5161H22.724V7.20408H27.068ZM22.436 2.47608C22.436 2.14008 22.5 1.82808 22.628 1.54008C22.756 1.23608 22.932 0.972076 23.156 0.748075C23.38 0.524076 23.636 0.348076 23.924 0.220077C24.228 0.0920763 24.548 0.0280762 24.884 0.0280762C25.22 0.0280762 25.532 0.0920763 25.82 0.220077C26.124 0.348076 26.388 0.524076 26.612 0.748075C26.836 0.972076 27.012 1.23608 27.14 1.54008C27.268 1.82808 27.332 2.14008 27.332 2.47608C27.332 2.81208 27.268 3.13208 27.14 3.43608C27.012 3.72408 26.836 3.98008 26.612 4.20408C26.388 4.42808 26.124 4.60408 25.82 4.73208C25.532 4.86008 25.22 4.92408 24.884 4.92408C24.548 4.92408 24.228 4.86008 23.924 4.73208C23.636 4.60408 23.38 4.42808 23.156 4.20408C22.932 3.98008 22.756 3.72408 22.628 3.43608C22.5 3.13208 22.436 2.81208 22.436 2.47608Z" fill="#171717"/>
  <path d="M32.9405 13.3001C32.9405 13.7161 33.0125 14.1001 33.1565 14.4521C33.3165 14.7881 33.5165 15.0841 33.7565 15.3401C34.0125 15.5961 34.3085 15.7961 34.6445 15.9401C34.9965 16.0841 35.3645 16.1561 35.7485 16.1561C36.1325 16.1561 36.4925 16.0841 36.8285 15.9401C37.1805 15.7961 37.4765 15.5961 37.7165 15.3401C37.9725 15.0841 38.1725 14.7881 38.3165 14.4521C38.4765 14.1001 38.5565 13.7241 38.5565 13.3241C38.5565 12.9401 38.4765 12.5801 38.3165 12.2441C38.1725 11.8921 37.9725 11.5881 37.7165 11.3321C37.4765 11.0761 37.1805 10.8761 36.8285 10.7321C36.4925 10.5881 36.1325 10.5161 35.7485 10.5161C35.3645 10.5161 34.9965 10.5881 34.6445 10.7321C34.3085 10.8761 34.0125 11.0761 33.7565 11.3321C33.5165 11.5881 33.3165 11.8841 33.1565 12.2201C33.0125 12.5561 32.9405 12.9161 32.9405 13.3001ZM28.3565 13.2521C28.3565 12.3401 28.5405 11.4921 28.9085 10.7081C29.2765 9.90808 29.7885 9.22008 30.4445 8.64408C31.1005 8.05208 31.8765 7.58808 32.7725 7.25208C33.6845 6.91608 34.6765 6.74808 35.7485 6.74808C36.8045 6.74808 37.7805 6.91608 38.6765 7.25208C39.5885 7.57208 40.3725 8.02808 41.0285 8.62008C41.7005 9.19608 42.2205 9.89208 42.5885 10.7081C42.9565 11.5081 43.1405 12.3961 43.1405 13.3721C43.1405 14.3481 42.9485 15.2441 42.5645 16.0601C42.1965 16.8601 41.6845 17.5561 41.0285 18.1481C40.3725 18.7241 39.5805 19.1721 38.6525 19.4921C37.7405 19.8121 36.7485 19.9721 35.6765 19.9721C34.6205 19.9721 33.6445 19.8121 32.7485 19.4921C31.8525 19.1721 31.0765 18.7161 30.4205 18.1241C29.7805 17.5321 29.2765 16.8281 28.9085 16.0121C28.5405 15.1801 28.3565 14.2601 28.3565 13.2521Z" fill="#171717"/>
  <path d="M49.5532 1.42008V15.5321H55.1932V19.5161H44.8492V1.42008H49.5532Z" fill="#171717"/>
  <path d="M55.6067 19.5161L58.6787 1.42008H63.3347L66.9587 11.0681L70.5587 1.42008H75.2147L78.2867 19.5161H73.6067L72.0467 9.10008L67.7747 19.5161H65.9027L61.8467 9.10008L60.2867 19.5161H55.6067Z" fill="#171717"/>
  
  <!-- "Docs" text -->
  <text x="83" y="19.5" fill="#3575F6" font-family="Inter, sans-serif" font-size="22" font-weight="700" dominant-baseline="auto" text-anchor="start">Docs</text>
</svg> 